<svg xmlns="http://www.w3.org/2000/svg" width="173" height="140" viewBox="0 0 173 140"><path id="logo-museu" d="M910.794,431.737v26.4c0,4.732,3.233,7.223,8.205,7.223s8.205-2.491,8.205-7.223V441.95H919.5v4.982h1.243V458.39a1.761,1.761,0,0,1-3.481,0v-26.9a1.761,1.761,0,0,1,3.481,0v6.974H927.2v-6.726c0-4.732-3.232-7.223-8.205-7.223s-8.205,2.491-8.205,7.223m-14.172-6.725h-4.973v39.853h4.475V443.943l6.962,20.923h4.973V425.012h-4.476v20.674Zm-16.857,25.9,1.193-10.462,1.193,10.462Zm-2.686-25.9-4.326,34.872v4.982h5.968v-4.982l.448-3.985h3.58l.448,3.985v4.982h6.465v-4.982l-4.476-34.872Zm-11.286-44.848v33.377a1.761,1.761,0,0,1-3.481,0V380.164h-6.465v33.128c0,4.733,3.232,7.223,8.2,7.223s8.205-2.49,8.205-7.223V380.164Zm-5.224,63.281V429.994h1.74a1.664,1.664,0,0,1,1.741,1.494V441.95a1.664,1.664,0,0,1-1.741,1.494Zm0,21.421V448.426h.8l3.431,11.458v4.982h6.714v-4.982l-3.829-12.853a6.588,6.588,0,0,0,2.835-5.828v-8.967c0-4.733-3.233-7.224-8.205-7.224h-8.2v39.853Zm-14.916-49.83V402.083h6.713V397.1h-6.713V385.146h8.454v-4.982H839.189v39.853h14.918v-4.982Zm5.469,9.977h-6.465v39.853h6.465Zm-3.232,49.819h1.74a1.664,1.664,0,0,1,1.741,1.494v13.949a1.664,1.664,0,0,1-1.741,1.494h-1.74Zm1.74-4.982h-8.2V509.7h6.465V496.75h1.74c4.973,0,8.205-2.49,8.205-7.223V477.073c0-4.733-3.232-7.224-8.205-7.224m-15.664-22.918h-1.74V429.994h1.74a1.664,1.664,0,0,1,1.741,1.494v13.949a1.664,1.664,0,0,1-1.741,1.495m0,4.982c4.973,0,8.205-2.491,8.205-7.224V432.236c0-4.733-3.232-7.224-8.205-7.224h-8.2v39.853h6.465V451.913Zm-7.458-61.039V386.64a1.761,1.761,0,0,1,3.481,0v6.974h6.464v-6.725c0-4.732-3.233-7.223-8.205-7.223s-8.2,2.491-8.2,7.223v3.986a12.948,12.948,0,0,0,5.072,10.91c2.536,2.192,5.122,3.885,5.122,7.771v3.985c0,.747-.746,1.494-1.989,1.494s-1.989-.747-1.989-1.494v-6.974H819.8v6.725c0,4.733,3.232,7.223,8.454,7.223s8.454-2.59,8.454-7.223v-3.736c0-6.825-3.332-9.415-6.166-11.856-2.138-1.793-4.028-3.537-4.028-6.825m-15.415-10.711v33.377a1.761,1.761,0,0,1-3.481,0V380.164h-6.465v33.128c0,4.733,3.232,7.223,8.2,7.223s8.205-2.49,8.205-7.223V380.164Zm11.685,44.848h-6.465v39.853h6.465Zm5.719,71.24h-6.465v6.725c0,4.733,3.233,7.224,8.454,7.224s8.454-2.59,8.454-7.224v-3.736c0-6.825-3.332-9.415-6.166-11.856-2.138-1.794-4.028-3.537-4.028-6.825v-4.234a1.761,1.761,0,0,1,3.481,0V483.3h6.465v-6.725c0-4.732-3.233-7.224-8.205-7.224s-8.205,2.491-8.205,7.224v3.985a12.947,12.947,0,0,0,5.072,10.91c2.536,2.192,5.122,3.886,5.122,7.771v3.986c0,.747-.746,1.494-1.989,1.494s-1.989-.747-1.989-1.494Zm-18.647-26.4h-6.465v33.128c0,4.733,3.232,7.224,8.2,7.224s8.205-2.491,8.205-7.224V469.85H813.33v33.377a1.761,1.761,0,0,1-3.481,0Zm-11.685-38.361a1.761,1.761,0,0,1,3.481,0v26.9a1.761,1.761,0,0,1-3.481,0Zm1.74,33.875c4.973,0,8.205-2.491,8.205-7.223v-26.4c0-4.732-3.232-7.223-8.205-7.223s-8.2,2.491-8.2,7.223v26.4c0,4.732,3.232,7.223,8.2,7.223m-2.734,21.922H772.8v4.982H797.17Zm-17.9-57.292h1.74a1.664,1.664,0,0,1,1.74,1.494v26.9a1.664,1.664,0,0,1-1.74,1.494h-1.74Zm1.74-4.982H772.8v39.853h8.205c4.973,0,8.205-2.491,8.205-7.223V432.236c0-4.733-3.232-7.224-8.205-7.224m-1.74-44.848H772.8v39.853h4.476V400.589l4.923,19.429h5.321l4.426-20.425v20.425h6.465V380.164H791.4l-5.42,27.15Zm-6.465-4.981h173V370.2h-173Zm165.491,75.734h-2.387l1.193-10.462Zm7.509,13.948v-4.982l-4.476-34.872h-8.106L928.9,459.884v4.982h5.967v-4.982l.448-3.985h3.58l.448,3.985v4.982Z" transform="translate(-772.803 -370.201)"></path></svg>